<mxfile host="app.diagrams.net" modified="2023-05-23T20:44:24.209Z" agent="Mozilla/5.0 (Macintosh; Intel Mac OS X 10_15_7) AppleWebKit/605.1.15 (KHTML, like Gecko) Version/16.5 Safari/605.1.15" etag="_PgSYZNB4Th031jg3--V" version="21.3.2" type="google">
  <diagram name="Page-1" id="sQcOpn0XcKOC0bBDTtec">
    <mxGraphModel grid="1" page="1" gridSize="10" guides="1" tooltips="1" connect="1" arrows="1" fold="1" pageScale="1" pageWidth="827" pageHeight="1169" math="1" shadow="0">
      <root>
        <mxCell id="0" />
        <mxCell id="1" parent="0" />
        <mxCell id="hNQvv1hfhs62RJaIOUbu-3" style="edgeStyle=orthogonalEdgeStyle;rounded=0;orthogonalLoop=1;jettySize=auto;html=1;exitX=0;exitY=0.5;exitDx=0;exitDy=0;startArrow=classic;startFill=1;endArrow=none;endFill=0;fontFamily=Times New Roman;fontSize=14;" edge="1" parent="1" source="hNQvv1hfhs62RJaIOUbu-2">
          <mxGeometry relative="1" as="geometry">
            <mxPoint x="120" y="280" as="targetPoint" />
          </mxGeometry>
        </mxCell>
        <mxCell id="hNQvv1hfhs62RJaIOUbu-4" value="UVDAR&lt;br style=&quot;font-size: 14px;&quot;&gt;" style="edgeLabel;html=1;align=center;verticalAlign=middle;resizable=0;points=[];fontFamily=Times New Roman;fontSize=14;" vertex="1" connectable="0" parent="hNQvv1hfhs62RJaIOUbu-3">
          <mxGeometry x="0.294" y="-2" relative="1" as="geometry">
            <mxPoint x="5" y="-8" as="offset" />
          </mxGeometry>
        </mxCell>
        <mxCell id="hNQvv1hfhs62RJaIOUbu-6" value="" style="edgeStyle=orthogonalEdgeStyle;rounded=0;orthogonalLoop=1;jettySize=auto;html=1;fontFamily=Times New Roman;fontSize=14;" edge="1" parent="1" source="hNQvv1hfhs62RJaIOUbu-2" target="hNQvv1hfhs62RJaIOUbu-5">
          <mxGeometry relative="1" as="geometry" />
        </mxCell>
        <mxCell id="hNQvv1hfhs62RJaIOUbu-2" value="Transform to &lt;br style=&quot;font-size: 14px;&quot;&gt;world frame" style="rounded=1;whiteSpace=wrap;html=1;fontFamily=Times New Roman;fontSize=14;" vertex="1" parent="1">
          <mxGeometry x="220" y="250" width="120" height="60" as="geometry" />
        </mxCell>
        <mxCell id="hNQvv1hfhs62RJaIOUbu-29" value="" style="edgeStyle=orthogonalEdgeStyle;rounded=0;orthogonalLoop=1;jettySize=auto;html=1;entryX=0;entryY=0;entryDx=0;entryDy=27.5;entryPerimeter=0;fontFamily=Times New Roman;fontSize=14;" edge="1" parent="1" source="hNQvv1hfhs62RJaIOUbu-5" target="hNQvv1hfhs62RJaIOUbu-28">
          <mxGeometry relative="1" as="geometry" />
        </mxCell>
        <mxCell id="hNQvv1hfhs62RJaIOUbu-5" value="Linear&lt;br style=&quot;font-size: 14px;&quot;&gt;kalman filter" style="rounded=1;whiteSpace=wrap;html=1;fontFamily=Times New Roman;fontSize=14;" vertex="1" parent="1">
          <mxGeometry x="400" y="250" width="120" height="60" as="geometry" />
        </mxCell>
        <mxCell id="hNQvv1hfhs62RJaIOUbu-13" style="edgeStyle=orthogonalEdgeStyle;rounded=0;orthogonalLoop=1;jettySize=auto;html=1;exitX=0;exitY=0.5;exitDx=0;exitDy=0;startArrow=classic;startFill=1;endArrow=none;endFill=0;fontFamily=Times New Roman;fontSize=14;" edge="1" parent="1" source="hNQvv1hfhs62RJaIOUbu-15">
          <mxGeometry relative="1" as="geometry">
            <mxPoint x="120" y="390" as="targetPoint" />
            <mxPoint x="220" y="390" as="sourcePoint" />
          </mxGeometry>
        </mxCell>
        <mxCell id="hNQvv1hfhs62RJaIOUbu-14" value="UWB" style="edgeLabel;html=1;align=center;verticalAlign=middle;resizable=0;points=[];fontFamily=Times New Roman;fontSize=14;" vertex="1" connectable="0" parent="hNQvv1hfhs62RJaIOUbu-13">
          <mxGeometry x="0.294" y="-2" relative="1" as="geometry">
            <mxPoint x="5" y="-8" as="offset" />
          </mxGeometry>
        </mxCell>
        <mxCell id="hNQvv1hfhs62RJaIOUbu-21" value="" style="edgeStyle=orthogonalEdgeStyle;rounded=0;orthogonalLoop=1;jettySize=auto;html=1;fontFamily=Times New Roman;fontSize=14;" edge="1" parent="1" source="hNQvv1hfhs62RJaIOUbu-15" target="hNQvv1hfhs62RJaIOUbu-19">
          <mxGeometry relative="1" as="geometry" />
        </mxCell>
        <mxCell id="hNQvv1hfhs62RJaIOUbu-15" value="Unscented&lt;br style=&quot;font-size: 14px;&quot;&gt;kalman filter" style="rounded=1;whiteSpace=wrap;html=1;fontFamily=Times New Roman;fontSize=14;" vertex="1" parent="1">
          <mxGeometry x="220" y="360" width="120" height="60" as="geometry" />
        </mxCell>
        <mxCell id="hNQvv1hfhs62RJaIOUbu-17" style="edgeStyle=orthogonalEdgeStyle;rounded=0;orthogonalLoop=1;jettySize=auto;html=1;entryX=0.5;entryY=1;entryDx=0;entryDy=0;fontFamily=Times New Roman;fontSize=14;" edge="1" parent="1" source="hNQvv1hfhs62RJaIOUbu-16" target="hNQvv1hfhs62RJaIOUbu-15">
          <mxGeometry relative="1" as="geometry" />
        </mxCell>
        <mxCell id="hNQvv1hfhs62RJaIOUbu-16" value="Transform to &lt;br style=&quot;font-size: 14px;&quot;&gt;UAV frame" style="rounded=1;whiteSpace=wrap;html=1;fontFamily=Times New Roman;fontSize=14;" vertex="1" parent="1">
          <mxGeometry x="400" y="470" width="120" height="60" as="geometry" />
        </mxCell>
        <mxCell id="hNQvv1hfhs62RJaIOUbu-32" style="edgeStyle=orthogonalEdgeStyle;rounded=0;orthogonalLoop=1;jettySize=auto;html=1;exitX=1;exitY=0.5;exitDx=0;exitDy=0;entryX=0;entryY=0;entryDx=0;entryDy=52.5;entryPerimeter=0;fontFamily=Times New Roman;fontSize=14;" edge="1" parent="1" source="hNQvv1hfhs62RJaIOUbu-19" target="hNQvv1hfhs62RJaIOUbu-28">
          <mxGeometry relative="1" as="geometry" />
        </mxCell>
        <mxCell id="hNQvv1hfhs62RJaIOUbu-19" value="Transform to &lt;br style=&quot;font-size: 14px;&quot;&gt;world frame" style="rounded=1;whiteSpace=wrap;html=1;fontFamily=Times New Roman;fontSize=14;" vertex="1" parent="1">
          <mxGeometry x="415" y="360" width="90" height="60" as="geometry" />
        </mxCell>
        <mxCell id="hNQvv1hfhs62RJaIOUbu-30" style="edgeStyle=orthogonalEdgeStyle;rounded=0;orthogonalLoop=1;jettySize=auto;html=1;exitX=0.5;exitY=0;exitDx=0;exitDy=0;exitPerimeter=0;entryX=0.5;entryY=0;entryDx=0;entryDy=0;fontFamily=Times New Roman;fontSize=14;" edge="1" parent="1" source="hNQvv1hfhs62RJaIOUbu-28" target="hNQvv1hfhs62RJaIOUbu-5">
          <mxGeometry relative="1" as="geometry">
            <Array as="points">
              <mxPoint x="620" y="190" />
              <mxPoint x="460" y="190" />
            </Array>
          </mxGeometry>
        </mxCell>
        <mxCell id="hNQvv1hfhs62RJaIOUbu-31" style="edgeStyle=orthogonalEdgeStyle;rounded=0;orthogonalLoop=1;jettySize=auto;html=1;exitX=0.5;exitY=1;exitDx=0;exitDy=0;exitPerimeter=0;entryX=1;entryY=0.5;entryDx=0;entryDy=0;fontFamily=Times New Roman;fontSize=14;" edge="1" parent="1" source="hNQvv1hfhs62RJaIOUbu-28" target="hNQvv1hfhs62RJaIOUbu-16">
          <mxGeometry relative="1" as="geometry" />
        </mxCell>
        <mxCell id="hNQvv1hfhs62RJaIOUbu-33" value="&lt;span style=&quot;caret-color: rgb(0, 0, 0); color: rgb(0, 0, 0); font-size: 14px; font-style: normal; font-variant-caps: normal; font-weight: 400; letter-spacing: normal; text-align: center; text-indent: 0px; text-transform: none; word-spacing: 0px; -webkit-text-stroke-width: 0px; background-color: rgb(255, 255, 255); text-decoration: none; float: none; display: inline !important;&quot;&gt;ROS topic&lt;/span&gt;" style="edgeStyle=orthogonalEdgeStyle;rounded=0;orthogonalLoop=1;jettySize=auto;html=1;exitX=1;exitY=0.5;exitDx=0;exitDy=0;exitPerimeter=0;fontFamily=Times New Roman;fontSize=14;" edge="1" parent="1" source="hNQvv1hfhs62RJaIOUbu-28">
          <mxGeometry x="-0.0036" y="-12" relative="1" as="geometry">
            <mxPoint x="760" y="292" as="targetPoint" />
            <mxPoint x="12" y="-12" as="offset" />
          </mxGeometry>
        </mxCell>
        <mxCell id="hNQvv1hfhs62RJaIOUbu-28" value="$$\mathbf{\hat{x}, \hat{P}}$$" style="shape=cylinder3;whiteSpace=wrap;html=1;boundedLbl=1;backgroundOutline=1;size=15;fontFamily=Times New Roman;fontSize=14;" vertex="1" parent="1">
          <mxGeometry x="590" y="252" width="60" height="80" as="geometry" />
        </mxCell>
      </root>
    </mxGraphModel>
  </diagram>
</mxfile>
